<svg id="Layer_1" data-name="Layer 1" xmlns="http://www.w3.org/2000/svg" xmlns:xlink="http://www.w3.org/1999/xlink" viewBox="0 0 1920 1080"><defs><style>.cls-1{fill:#ccf3ff;}.cls-2{opacity:0.11;}.cls-3{fill:url(#linear-gradient);}.cls-4{fill:url(#linear-gradient-2);}.cls-5{fill:url(#linear-gradient-3);}.cls-6{fill:url(#linear-gradient-4);}.cls-7{fill:url(#linear-gradient-5);}.cls-8{fill:url(#linear-gradient-6);}.cls-9{opacity:0.13;fill:url(#linear-gradient-7);}</style><linearGradient id="linear-gradient" x1="1019.14" y1="301.47" x2="1152.61" y2="301.47" gradientTransform="matrix(-1, 0, 0, 1, 1942.21, 0)" gradientUnits="userSpaceOnUse"><stop offset="0" stop-color="blue"/><stop offset="1" stop-color="aqua"/></linearGradient><linearGradient id="linear-gradient-2" x1="1052.21" y1="283.75" x2="1119.53" y2="283.75" xlink:href="#linear-gradient"/><linearGradient id="linear-gradient-3" x1="1085.28" y1="329.22" x2="1128.98" y2="329.22" xlink:href="#linear-gradient"/><linearGradient id="linear-gradient-4" x1="1213.14" y1="466.11" x2="1285.88" y2="466.11" xlink:href="#linear-gradient"/><linearGradient id="linear-gradient-5" x1="1231.16" y1="456.45" x2="1267.86" y2="456.45" xlink:href="#linear-gradient"/><linearGradient id="linear-gradient-6" x1="1249.19" y1="481.23" x2="1273.01" y2="481.23" xlink:href="#linear-gradient"/><linearGradient id="linear-gradient-7" x1="1305.61" y1="188.48" x2="1453.61" y2="188.48" xlink:href="#linear-gradient"/></defs><title>Artboard 29</title><path class="cls-1" d="M1453.61,819.48v-24a37.16,37.16,0,0,1-.94-4.38,169.39,169.39,0,0,0-18.78-62.31c-17.46-33.69-42.83-60.47-73-83-16-12-33.16-22.33-49.18-34.33-38.76-29-67-65.89-84.67-111a647.36,647.36,0,0,1-25.4-81c-7.32-29.6-13.36-59.54-21.23-89-13.4-50.09-40.14-92-80.72-124.57-48.33-38.78-104.52-56.31-165.66-59.32a331.35,331.35,0,0,0-105.88,11.76c-55.46,15.45-103.92,42.55-143.35,85.14-41.2,44.51-70.82,95.79-90,153.11a443.28,443.28,0,0,0-21.42,182.84A433.69,433.69,0,0,0,594.73,681c25.54,74.64,68.53,137.73,127.09,190.39A535.36,535.36,0,0,0,858,960.69c84.8,38.79,174.26,56.55,267.11,58.67a581,581,0,0,0,66.86-2.81c42.86-4,84.74-12.4,124.94-28.08,29.41-11.46,56.72-26.55,80.17-48,28.51-26.11,43.94-59.4,52.45-96.38C1451.34,836,1452.25,827.68,1453.61,819.48Z"/><path class="cls-1" d="M774.61,1059.48c5.07-.92,10.15-1.78,15.2-2.76a76.32,76.32,0,0,0,18.35-6.41c21.07-10.11,25.15-28.69,16.85-48.73-5.73-13.84-16.91-23-29.35-30.46-20.44-12.24-41.25-23.85-61.72-36-22.21-13.21-43.81-27.32-63.91-43.66-25.94-21.1-46-47-63.3-75.39-7.18-11.79-12.78-24.58-21.85-35.19a40.47,40.47,0,0,0-5.65-5.61c-10.47-8.21-21.53-5.16-26.4,7.27-1.27,3.25-2.16,6.64-3.22,10v48c.67,3.93,1.46,7.84,2,11.78,8.37,62.81,34.7,116,84.1,156.75,29.12,24,61.55,41.44,99.17,48,4.91.86,9.82,1.66,14.74,2.48Z"/><path class="cls-1" d="M1020.61,88.48c-9.09,3.64-17.26,8.42-23,16.8-8.22,12.08-6.16,21.84,6.85,28.28a62.29,62.29,0,0,0,36.85,6.09c8.68-1.21,13.69-7,14.23-15.88.75-12.51-8.17-27.65-19.5-33.1-1.5-.72-3-1.46-4.47-2.19Z"/><path class="cls-1" d="M1158.42,109.4a112.18,112.18,0,0,0-49.72,9.32c-9.89,4.31-18.82,10.09-24.87,19.39-6.68,10.27-5.12,18.45,5,25.17,19.06,12.61,37.56,26,53.79,42.14a191.63,191.63,0,0,1,45.49,72.09,272.92,272.92,0,0,1,8.33,27.22c.55,2.27,1.22,4.51,2,6.72,7,21.27,23,30.9,45,26.27,20.13-4.25,35.54-16.09,48-32,16.4-20.9,21.65-44.86,19.6-70.92-1.92-24.46-9.26-46.95-23.5-67-18.76-26.44-44.74-42.28-75.41-51.13A175.24,175.24,0,0,0,1158.42,109.4Z"/><g class="cls-2"><circle class="cls-3" cx="856.34" cy="301.47" r="66.73"/><circle class="cls-4" cx="856.34" cy="283.75" r="33.66"/><circle class="cls-5" cx="835.08" cy="329.22" r="21.85"/></g><g class="cls-2"><circle class="cls-6" cx="692.7" cy="466.11" r="36.37"/><circle class="cls-7" cx="692.7" cy="456.45" r="18.35"/><circle class="cls-8" cx="681.11" cy="481.23" r="11.91"/></g><circle class="cls-9" cx="562.61" cy="188.48" r="74"/></svg>