<svg xmlns="http://www.w3.org/2000/svg" xmlns:xlink="http://www.w3.org/1999/xlink" viewBox="0 0 1920 1080"><defs><style>.cls-1{fill:none;}.cls-2{isolation:isolate;}.cls-3{clip-path:url(#clip-path);}.cls-4{opacity:0.12;fill:url(#linear-gradient);}.cls-5,.cls-6{opacity:0.09;}.cls-5{fill:url(#linear-gradient-2);}.cls-7{fill:url(#linear-gradient-3);}.cls-8{fill:url(#linear-gradient-4);}.cls-9{fill:url(#linear-gradient-5);}.cls-10{opacity:0.16;}.cls-11{fill:url(#linear-gradient-6);}.cls-12{fill:url(#linear-gradient-7);}.cls-13{fill:url(#linear-gradient-8);}.cls-14{fill:#e8e8e8;}.cls-15{fill:#1b1b35;}.cls-16{fill:#1e2542;}.cls-17{fill:#2d345b;}.cls-18{fill:#f6cbc5;}.cls-19{fill:#fff;}.cls-20{fill:#e5e5e5;}.cls-21,.cls-25,.cls-29{mix-blend-mode:multiply;}.cls-22{clip-path:url(#clip-path-2);}.cls-23{fill:#f4b0af;}.cls-24{fill:#3f4fff;}.cls-25{opacity:0.3;}.cls-26{clip-path:url(#clip-path-3);}.cls-27{fill:#7797c6;}.cls-28{fill:#dee2fc;}.cls-29,.cls-32{opacity:0.5;}.cls-30{clip-path:url(#clip-path-4);}.cls-31{fill:#94a6ff;}.cls-32{mix-blend-mode:screen;}.cls-33{clip-path:url(#clip-path-5);}.cls-34{clip-path:url(#clip-path-6);}.cls-35{clip-path:url(#clip-path-7);}.cls-36{clip-path:url(#clip-path-8);}.cls-37{clip-path:url(#clip-path-9);}.cls-38{clip-path:url(#clip-path-10);}.cls-39{clip-path:url(#clip-path-11);}.cls-40{fill:#efe7e5;}.cls-41{fill:#d3c2be;}.cls-42{clip-path:url(#clip-path-12);}.cls-43{clip-path:url(#clip-path-13);}.cls-44{clip-path:url(#clip-path-14);}.cls-45{clip-path:url(#clip-path-15);}.cls-46{clip-path:url(#clip-path-16);}</style><clipPath id="clip-path"><rect class="cls-1" x="546.64" y="103.21" width="874" height="874"/></clipPath><linearGradient id="linear-gradient" x1="567.22" y1="634.58" x2="1593.33" y2="634.58" gradientUnits="userSpaceOnUse"><stop offset="0" stop-color="blue"/><stop offset="1" stop-color="aqua"/></linearGradient><linearGradient id="linear-gradient-2" x1="566.14" y1="688.14" x2="1552.4" y2="688.14" xlink:href="#linear-gradient"/><linearGradient id="linear-gradient-3" x1="1059.82" y1="624.98" x2="1269.14" y2="624.98" xlink:href="#linear-gradient"/><linearGradient id="linear-gradient-4" x1="1111.69" y1="597.2" x2="1217.28" y2="597.2" xlink:href="#linear-gradient"/><linearGradient id="linear-gradient-5" x1="1163.56" y1="668.51" x2="1232.1" y2="668.51" xlink:href="#linear-gradient"/><linearGradient id="linear-gradient-6" x1="1244.14" y1="344.32" x2="1352.14" y2="344.32" xlink:href="#linear-gradient"/><linearGradient id="linear-gradient-7" x1="1270.9" y1="329.99" x2="1325.38" y2="329.99" xlink:href="#linear-gradient"/><linearGradient id="linear-gradient-8" x1="1297.67" y1="366.78" x2="1333.03" y2="366.78" xlink:href="#linear-gradient"/><clipPath id="clip-path-2"><rect class="cls-1" x="1176.74" y="511.51" width="24.8" height="28.93"/></clipPath><clipPath id="clip-path-3"><rect class="cls-1" x="1168.47" y="565.24" width="107.46" height="148.79"/></clipPath><clipPath id="clip-path-4"><rect class="cls-1" x="961.82" y="664.43" width="103.33" height="20.67"/></clipPath><clipPath id="clip-path-5"><rect class="cls-1" x="755.16" y="664.43" width="28.93" height="20.67"/></clipPath><clipPath id="clip-path-6"><rect class="cls-1" x="763.43" y="685.1" width="12.4" height="12.4"/></clipPath><clipPath id="clip-path-7"><rect class="cls-1" x="751.03" y="697.5" width="24.8" height="276.92"/></clipPath><clipPath id="clip-path-8"><rect class="cls-1" x="771.69" y="701.63" width="20.67" height="8.27"/></clipPath><clipPath id="clip-path-9"><rect class="cls-1" x="1019.68" y="685.1" width="12.4" height="12.4"/></clipPath><clipPath id="clip-path-10"><rect class="cls-1" x="1027.95" y="697.5" width="24.8" height="276.92"/></clipPath><clipPath id="clip-path-11"><rect class="cls-1" x="1036.21" y="697.5" width="33.07" height="276.92"/></clipPath><clipPath id="clip-path-12"><rect class="cls-1" x="693.16" y="842.16" width="33.07" height="136.39"/></clipPath><clipPath id="clip-path-13"><rect class="cls-1" x="775.82" y="842.16" width="45.46" height="136.39"/></clipPath><clipPath id="clip-path-14"><rect class="cls-1" x="689.03" y="858.69" width="132.26" height="8.27"/></clipPath><clipPath id="clip-path-15"><rect class="cls-1" x="800.62" y="838.03" width="28.93" height="20.67"/></clipPath><clipPath id="clip-path-16"><rect class="cls-1" x="684.9" y="838.03" width="16.53" height="20.67"/></clipPath></defs><title>Artboard 18</title><g class="cls-2"><g id="Layer_1" data-name="Layer 1"><g class="cls-3"><path class="cls-4" d="M1410.14,135.71c-222-55-371.49,94.79-492,222-108,114-402.81,441.78-343,618,68.88,202.9,591.41,252.24,859-12C1681.18,719.76,1615.17,186.5,1410.14,135.71Z"/><path class="cls-5" d="M1328.14,237.71c-178.91-25.13-250.31,92.06-375,192-102.16,81.88-387,334.78-387,481,0,253,617.72,321.73,867.3,88.61C1663.85,784.1,1521.47,264.86,1328.14,237.71Z"/><g class="cls-6"><circle class="cls-7" cx="1164.48" cy="624.98" r="104.66"/><circle class="cls-8" cx="1164.48" cy="597.2" r="52.79"/><circle class="cls-9" cx="1197.83" cy="668.51" r="34.27"/></g><g class="cls-10"><circle class="cls-11" cx="1298.14" cy="344.32" r="54"/><circle class="cls-12" cx="1298.14" cy="329.99" r="27.24"/><circle class="cls-13" cx="1315.35" cy="366.78" r="17.68"/></g><polygon class="cls-14" points="792.36 685.1 792.36 689.79 792.36 697.5 800.26 697.5 777.13 974.42 780.4 974.42 782.81 974.42 790.04 974.42 798.72 974.42 821.86 697.5 829.56 697.5 829.56 690.41 829.56 685.1 792.36 685.1"/><polygon class="cls-14" points="1027.95 685.1 1027.95 689.79 1027.95 697.5 1020.04 697.5 1043.18 974.42 1039.9 974.42 1037.49 974.42 1030.26 974.42 1021.58 974.42 998.45 697.5 990.75 697.5 990.75 690.41 990.75 685.1 1027.95 685.1"/><polygon class="cls-15" points="963.99 928.22 960.46 936.65 936.42 943.87 903.55 944.99 924.36 965.75 975.72 975.76 978.95 948.04 983.56 939.07 963.99 928.22"/><path class="cls-16" d="M1160,724.43l-125.84,62.25L958.64,931.16l26.13,9.22s59.17-34.58,85.3-103.74l149.86-62.25Z"/><polygon class="cls-15" points="1141.54 919.85 1145 928.31 1133.09 950.4 1110.61 974.42 1140.01 974.42 1183.43 945.22 1166.14 923.31 1163.06 913.7 1141.54 919.85"/><path class="cls-17" d="M1303.7,709.9s13.83,41.5-9.22,60.71S1140,783.68,1140,783.68s35.35,67.62,27.66,132.18l-27.47,7.69s-55.91-113-68.59-139.11c-8.12-16.72-1.54-37.65,19.21-44.57s92.22-30,92.22-30Z"/><path class="cls-18" d="M1151.44,476.59s-11,53,10.08,57.06,19.89-3.17,28.53,7.78l36-13.25s-6.82-7.69-7.11-16.81c-.27-8.48,3.65-31,3.94-43.71s-6.92-30.55-31.41-31.42-34,9.8-40.06,40.35"/><path class="cls-18" d="M1151,482.93s-7.64,8.07-8.8,10.66,7.93,5.05,7.93,5.05Z"/><path class="cls-15" d="M1153.26,468.14s-11.14-5.57-8.83-14.22,12.48-6.15,12.48-6.15-9.41-10.57-3.46-17.86c7.15-8.76,25.56,1.15,25.56,1.15s36.69-4.81,44.57,17.29-4.71,59.94-4.71,59.94l-14.12-8.36s6.25-.86,7.11-6.72-1.15-10.76-5.67-9.9-5,5.77-5,5.77l-1.83,4.42-5.37,1.34,1.53-15.94-10-3.65.19-7.11s-12.58.77-32.47,0"/><path class="cls-15" d="M1219.36,445.12s6.74-6.05,3.94-9.72-5.79.56-4.39,2.43c1.76,2.36.45,7.29.45,7.29"/><path class="cls-15" d="M1219.45,445s6.13-4.28,8.56-1.33-1.54,4.55-2.78,3.07c-1.57-1.86-5.78-1.74-5.78-1.74"/><path class="cls-19" d="M1329.67,677.08h0a16.58,16.58,0,0,1-16.54-16.53V539.62c0-7.07,4.29-13.69,11-15.92a16.61,16.61,0,0,1,22.07,15.62V660.55a16.58,16.58,0,0,1-16.53,16.53"/><path class="cls-20" d="M1335.56,782.62l-5.7-5.7c32.15-32.16,73.59-80.73,62.31-131.14-10.72-48-47.07-54.86-48.61-55.12l1.35-8c1.75.3,43.19,7.86,55.14,61.31,12.14,54.3-31,105.11-64.49,138.61"/><g class="cls-21"><g class="cls-22"><path class="cls-18" d="M1201.3,512.71c-4.65,12.64-21.51,21.67-22.62,22.26,4.64-.13,6.37.13,11.38,6.46l7.16-2.63c5.9-10.92,4.08-26.09,4.08-26.09"/></g></g><path class="cls-23" d="M1036,646.62l-1.55,5.83a2.39,2.39,0,0,0,4.51,1.54l4.44-10.54Z"/><path class="cls-23" d="M1054.25,634.45l-11.53-.94-7.93,3.89-5.52,7.33a1.91,1.91,0,0,0,2.5,2.79l6.63-3.92Z"/><path class="cls-18" d="M1083.14,640.67s-5.38-1.16-7.69-1.35-18.06-5.57-24.2-5-17.68,8.83-17.68,8.83l-6.92,11.34s1.59,2.21,3.6,1.92,7.64-9.36,7.64-9.36l12-4.9s4.61,8.35,10.66,12.53,11.24,3.61,14.27,4.76,7.2,3.31,7.2,3.31Z"/><path class="cls-24" d="M1224.93,524.11s53.79,28.53,74.16,72.72S1311,714,1311,714H1170s1.92-26.9,20.36-50.34,8.83-60.65-1.73-75c-10.37-14.12-5.95-30.26.2-38.72l-6.34-9.6Z"/><path class="cls-24" d="M1236.06,551.28s-26.22,8.27-34.25,34.23c-7.78,25.17-58,59.67-114,51.18a5.36,5.36,0,0,0-6.13,4.43l-4.35,27.31a5.34,5.34,0,0,0,3.28,5.8c14.31,5.69,65,23.14,110.13,5.23,53.17-21.1,75-84.55,72.57-98.94s-7.15-28.38-27.24-29.24"/><g class="cls-25"><g class="cls-26"><path class="cls-27" d="M1218,694.05c-.77-16.14,58.79-36.89,58.79-95.29,0-29.65-18.06-35.35-18.06-35.35l-.06.07c2.41,4.73,3.7,10.26,4.63,15.86,2.37,14.38-19.41,77.84-72.57,98.94a104.44,104.44,0,0,1-11.66,3.83A100.51,100.51,0,0,0,1170,714h98.18c-10.32-12.43-49.7-10.44-50.15-20"/></g></g><rect class="cls-14" x="1209.81" y="796.69" width="95.06" height="24.8"/><rect class="cls-14" x="1251.14" y="813.23" width="8.27" height="136.39"/><rect class="cls-28" x="746.89" y="664.43" width="322.39" height="20.67"/><g class="cls-29"><g class="cls-30"><rect class="cls-31" x="961.82" y="664.43" width="103.33" height="20.67"/></g></g><g class="cls-32"><g class="cls-33"><rect class="cls-23" x="755.16" y="664.43" width="28.93" height="20.67"/></g></g><rect class="cls-19" x="763.43" y="685.1" width="37.2" height="12.4"/><g class="cls-32"><g class="cls-34"><rect class="cls-23" x="763.43" y="685.1" width="12.4" height="12.4"/></g></g><polygon class="cls-19" points="768.24 974.42 746.64 974.42 769.78 697.5 791.38 697.5 768.24 974.42"/><g class="cls-32"><g class="cls-35"><polygon class="cls-23" points="752.35 974.42 749.94 974.42 773.08 697.5 775.49 697.5 752.35 974.42"/></g></g><g class="cls-29"><g class="cls-36"><polygon class="cls-23" points="790.45 709.9 791.3 701.63 769.78 701.63 768.93 709.9 790.45 709.9"/></g></g><rect class="cls-19" x="1015.55" y="685.1" width="37.2" height="12.4"/><g class="cls-32"><g class="cls-37"><rect class="cls-23" x="1019.68" y="685.1" width="12.4" height="12.4"/></g></g><polygon class="cls-19" points="1048.27 974.42 1069.86 974.42 1046.73 697.5 1025.13 697.5 1048.27 974.42"/><g class="cls-32"><g class="cls-38"><polygon class="cls-23" points="1051.43 974.42 1053.84 974.42 1030.7 697.5 1028.29 697.5 1051.43 974.42"/></g></g><g class="cls-29"><g class="cls-39"><polygon class="cls-19" points="1061.02 974.42 1069.7 974.42 1046.56 697.5 1037.88 697.5 1061.02 974.42"/></g></g><rect class="cls-40" x="953.55" y="656.17" width="95.06" height="12.4"/><rect class="cls-19" x="887.42" y="470.18" width="16.53" height="148.79"/><rect class="cls-20" x="875.02" y="515.64" width="12.4" height="70.26"/><polygon class="cls-20" points="849.36 656.17 861.13 656.17 887.32 540.44 875.55 540.44 849.36 656.17"/><rect class="cls-40" x="837.82" y="652.03" width="99.2" height="12.4"/><path class="cls-24" d="M747.94,823s17-35.74,13-59.37-25.07-18.45-19.31-46.69.58-45-16.14-47.84-17.29-16.91-28.82-36c-10.43-17.3-49.18-12.39-41.5,23.92,10.18,48.06,34,34,41.5,53s-7.2,40.93,4.33,61.1,32.85,10.66,47,51.88"/><path class="cls-15" d="M748.51,857.87l-2.29-.28c0-.28,3.36-28.21-3.18-67.38-6-36.12-21.93-89.46-63.41-138.46l1.75-1.49c41.86,49.42,57.88,103.22,64,139.65,6.58,39.48,3.21,67.68,3.18,68"/><path class="cls-24" d="M761.75,828.4s-14.34-30.13-10.94-50.06S772,762.79,767.09,739s-.48-37.92,13.61-40.35,14.59-14.26,24.31-30.38c8.8-14.59,41.47-10.44,35,20.17-8.57,40.54-28.68,28.68-35,44.73s6.07,34.51-3.65,51.52-27.71,9-39.61,43.74"/><path class="cls-15" d="M761.27,857.85c0-.24-2.87-24,2.67-57.31,5.13-30.72,18.64-76.09,53.93-117.77l1.49,1.25c-35,41.32-48.4,86.31-53.48,116.77-5.52,33-2.71,56.59-2.68,56.82Z"/><polygon class="cls-41" points="803.32 978.55 705.15 978.55 685.1 842.16 823.37 842.16 803.32 978.55"/><g class="cls-32"><g class="cls-42"><polygon class="cls-41" points="691.19 842.16 711.24 978.55 724.48 978.55 704.43 842.16 691.19 842.16"/></g></g><g class="cls-29"><g class="cls-43"><polygon class="cls-41" points="823.14 842.16 803.09 978.55 776.54 978.55 796.58 842.16 823.14 842.16"/></g></g><g class="cls-29"><g class="cls-44"><polygon class="cls-41" points="818.74 866.96 819.95 858.69 688.51 858.69 689.73 866.96 818.74 866.96"/></g></g><rect class="cls-41" x="680.76" y="838.03" width="148.79" height="20.67"/><g class="cls-29"><g class="cls-45"><rect class="cls-41" x="800.62" y="838.03" width="28.93" height="20.67"/></g></g><g class="cls-32"><g class="cls-46"><rect class="cls-41" x="684.9" y="838.03" width="16.53" height="20.67"/></g></g><path class="cls-19" d="M1170.22,792.56h0A16.58,16.58,0,0,1,1186.75,776h140.61c7.07,0,13.68,4.28,15.91,11a16.59,16.59,0,0,1-15.61,22.07H1186.75a16.57,16.57,0,0,1-16.53-16.53"/></g></g></g></svg>