<svg id="Layer_1" data-name="Layer 1" xmlns="http://www.w3.org/2000/svg" xmlns:xlink="http://www.w3.org/1999/xlink" viewBox="0 0 1920 1370"><defs><style>.cls-1{fill:url(#linear-gradient);}.cls-2{fill:url(#linear-gradient-2);}.cls-3{fill:url(#linear-gradient-3);}.cls-4{fill:url(#linear-gradient-4);}</style><linearGradient id="linear-gradient" y1="706.05" x2="1920.09" y2="706.05" gradientUnits="userSpaceOnUse"><stop offset="0" stop-color="blue"/><stop offset="1" stop-color="aqua"/></linearGradient><linearGradient id="linear-gradient-2" x1="699" y1="611.5" x2="806" y2="611.5" xlink:href="#linear-gradient"/><linearGradient id="linear-gradient-3" x1="840" y1="778" x2="1006" y2="778" xlink:href="#linear-gradient"/><linearGradient id="linear-gradient-4" x1="1583" y1="1087" x2="1749" y2="1087" xlink:href="#linear-gradient"/></defs><title>Artboard 3</title><path class="cls-1" d="M1920,70q0,647.75.09,1295.5c0,3.75-.84,4.59-4.59,4.59Q1153.76,1370,392,1370c-2.76-.94-5.61-.59-8.43-.59l-375.11-.07c-2.82,0-5.64-.22-8.46-.34V792c13.15-27.82,36.69-43.12,64.33-53.55,16.42-6.2,33.39-10.37,50.57-13.72,47.3-9.23,95.35-12.84,143.06-19,36.19-4.65,72.19-10.31,107.44-20,26.13-7.21,50.73-17.29,71.42-35.49,14.59-12.84,27.23-27.39,39.11-42.69,18.7-24.07,35.85-49.34,56.29-72.07,30.33-33.74,66.81-56.8,111.83-65.38,37-7.07,74-4.94,110.82,1.17,43.38,7.18,85.24,20,126.58,34.72,77.53,27.61,157,41.15,239.53,33.94a482.31,482.31,0,0,0,125-27.72c94.27-34.63,171.76-93,237-168.48,47.89-55.43,85.25-117.27,113.11-185.15,27.32-66.58,77.76-104.25,149.13-114,10.58-1.44,21.25-1.28,31.82-2.59h6c2.58.9,5.26.69,7.91.71,13.32.08,26.51,1.65,39.66,3.61A430.18,430.18,0,0,1,1920,70Z"/><circle class="cls-2" cx="752.5" cy="611.5" r="53.5"/><circle class="cls-3" cx="923" cy="778" r="83"/><circle class="cls-4" cx="1666" cy="1087" r="83"/></svg>