<svg id="Layer_1" data-name="Layer 1" xmlns="http://www.w3.org/2000/svg" xmlns:xlink="http://www.w3.org/1999/xlink" viewBox="0 0 1920 1080"><defs><style>.cls-1{fill:#ebebff;}.cls-2,.cls-3,.cls-4,.cls-6{opacity:0.11;}.cls-2{fill:url(#Gradiente_sem_nome_20);}.cls-3{fill:url(#linear-gradient);}.cls-4{fill:url(#linear-gradient-2);}.cls-5{opacity:0.2;fill:url(#Gradiente_sem_nome_20-2);}.cls-7{fill:url(#linear-gradient-3);}.cls-8{fill:url(#linear-gradient-4);}.cls-9{fill:url(#linear-gradient-5);}</style><linearGradient id="Gradiente_sem_nome_20" x1="761.68" y1="701.91" x2="1015.09" y2="701.91" gradientTransform="matrix(-1, 0, 0, 1, 2024.51, 0)" gradientUnits="userSpaceOnUse"><stop offset="0" stop-color="blue"/><stop offset="0.1" stop-color="#0005ff"/><stop offset="0.23" stop-color="#0013ff"/><stop offset="0.36" stop-color="#002bff"/><stop offset="0.5" stop-color="#004dff"/><stop offset="0.65" stop-color="#0078ff"/><stop offset="0.8" stop-color="#00adff"/><stop offset="0.95" stop-color="#00eaff"/><stop offset="1" stop-color="aqua"/></linearGradient><linearGradient id="linear-gradient" x1="755.22" y1="798.04" x2="836.22" y2="798.04" gradientTransform="matrix(-1, 0, 0, 1, 2024.51, 0)" gradientUnits="userSpaceOnUse"><stop offset="0" stop-color="blue"/><stop offset="1" stop-color="aqua"/></linearGradient><linearGradient id="linear-gradient-2" x1="680.08" y1="436.07" x2="737.25" y2="436.07" xlink:href="#linear-gradient"/><linearGradient id="Gradiente_sem_nome_20-2" x1="519.26" y1="166.5" x2="655.26" y2="166.5" xlink:href="#Gradiente_sem_nome_20"/><linearGradient id="linear-gradient-3" x1="888.67" y1="254.59" x2="1022.14" y2="254.59" xlink:href="#linear-gradient"/><linearGradient id="linear-gradient-4" x1="921.74" y1="236.87" x2="989.07" y2="236.87" xlink:href="#linear-gradient"/><linearGradient id="linear-gradient-5" x1="954.81" y1="282.34" x2="998.52" y2="282.34" xlink:href="#linear-gradient"/></defs><title>Artboard 28</title><path class="cls-1" d="M519.26,777.5v28c1.09,6.54.48,13.25,1.86,19.74,8.2,38.52,24,73,53.45,100.22A223.2,223.2,0,0,0,621,958.17c39.29,21,81.47,32.81,125.2,39.74a558.17,558.17,0,0,0,66.59,6.35c10.15.38,20.29.93,30.45.78a711.17,711.17,0,0,0,152.48-18.27,638.87,638.87,0,0,0,110.49-36.36,546.33,546.33,0,0,0,137.4-86.49A463.73,463.73,0,0,0,1341,748.79a436.29,436.29,0,0,0,57.46-163,421.76,421.76,0,0,0,4.22-79.22,458.83,458.83,0,0,0-20.91-119.26,433.31,433.31,0,0,0-74.11-139.6c-29.19-36.69-64.31-66-106.8-86.14a343.56,343.56,0,0,0-109.18-30.81,321.58,321.58,0,0,0-55.38-1.64c-64.48,3.83-123.22,23.46-172.55,66.55-25.67,22.42-45.23,49.58-59.43,80.71-11.1,24.34-16.9,50.12-22.57,76-7.67,35-16.06,69.85-27.34,103.9-11.22,33.86-25.47,66.26-48.36,94.19-17.14,20.93-37.63,38.11-59.6,53.69-16.17,11.47-33.23,21.66-48.46,34.47-24.86,20.94-46,45-60.82,74-8,15.63-14.24,32-16.65,49.52C519.83,767.28,520.21,772.45,519.26,777.5Z"/><path class="cls-1" d="M1422.26,771.5c-2.17-3.17-2.39-7.26-4.87-10.29-8.55-10.4-19.1-8.16-28.68,2.71-8.74,9.93-14,22.16-20.82,33.35-11,18-22.88,35.35-36.93,51.24-15.22,17.2-32.91,31.33-51.53,44.48-29.51,20.84-61,38.36-92.4,56.21-12.27,7-24,14.6-33.11,25.94-9.44,11.79-13.3,32.32-6.32,44,5.57,9.31,14.36,14.6,24.19,18.32a76.75,76.75,0,0,0,23.25,5.11,7.41,7.41,0,0,1,2.22.93h26c5-1,10.21-.57,15.28-1.26a152.57,152.57,0,0,0,41.6-12.2,249.7,249.7,0,0,0,69.62-46.2c36.62-34.36,58.72-76.51,69.21-125.24,1.86-8.63,2.08-17.41,3.29-26.1Z"/><path class="cls-1" d="M941.26,72.5c-13,5.08-20.19,15.07-23.48,28.15a21.39,21.39,0,0,0,2,15.88c4.3,7.93,12.07,7.85,19.11,7.74,9.56-.15,19.17-1.58,28-5.87,3.71-1.81,7.4-3.85,10-7.26,5.53-7.38,4.1-15.63-3.58-24.21a49.82,49.82,0,0,0-21-14.43Z"/><path class="cls-2" d="M1095.3,827.68c37.31-.19,66.63-6.52,93.77-21.18,31.69-17.13,55.58-41.74,67-76.41,10.67-32.48,8.84-64.74-5.9-96a114.92,114.92,0,0,0-21.51-31.58,85,85,0,0,0-47-24.58c-20.52-3.61-40.77-2.39-59.63,7.7-17.9,9.58-29.75,24.09-34.94,43.86-4.26,16.2-7.34,32.69-13.35,48.45-5.82,15.27-16.23,26.46-29,35.86-4.68,3.44-9.71,6.46-14.13,10.2-10.78,9.11-17.34,20.94-20.19,34.64-3.51,16.88,3.28,31.16,13.52,43.58,6.58,8,16.41,12.27,26,16.3C1066.5,825.54,1083.9,828.13,1095.3,827.68Z"/><path class="cls-3" d="M1269.24,769.82c0-3.65.34-7-1.09-10.16-1.58-3.48-4.75-4.31-7.67-1.8a16.68,16.68,0,0,0-4.23,4.85c-10.34,21-27.81,34.29-47.68,45.21-5.64,3.1-11.56,5.83-16.08,10.77-7.17,7.82-5,16.54,5.18,19.44,12.88,3.68,24.89.36,35.91-6,20.3-11.66,32.09-29.28,34.84-52.79A62.26,62.26,0,0,0,1269.24,769.82Z"/><path class="cls-4" d="M1315.61,408.49c-16.19-1.31-28.38,13-28.35,27.43,0,15.25,13.11,28.4,30,27.8,14.57-.52,27.41-12.15,27.15-28.3C1344.2,421.25,1332.62,407.37,1315.61,408.49Z"/><path class="cls-1" d="M815.16,93.44c-30.19-.37-56.41,5.28-80.88,17.25-31.45,15.37-53.7,39.5-65.29,73a138.5,138.5,0,0,0-7.66,46.89c.24,23.34,7.38,44.22,22.65,62.3,11,13.08,24.28,22.77,40.56,27.66,12.24,3.68,24.65,3.86,35.81-4.11,9.26-6.6,13.3-16.37,15.87-26.89,6.18-25.22,15.57-49.07,29.93-70.81,12.94-19.61,29.67-35.63,48-50.14,9.88-7.85,20.37-14.87,30.82-21.94,9-6.09,10.61-13.91,5-23.19-7.34-12-18.91-18.33-31.54-23A109,109,0,0,0,815.16,93.44Z"/><circle class="cls-5" cx="1437.26" cy="166.5" r="68"/><g class="cls-6"><circle class="cls-7" cx="1069.11" cy="254.59" r="66.73"/><circle class="cls-8" cx="1069.11" cy="236.87" r="33.66"/><circle class="cls-9" cx="1047.85" cy="282.34" r="21.85"/></g></svg>