<svg id="Layer_1" data-name="Layer 1" xmlns="http://www.w3.org/2000/svg" xmlns:xlink="http://www.w3.org/1999/xlink" viewBox="0 0 1920 1080"><defs><style>.cls-1{fill:url(#linear-gradient);}</style><linearGradient id="linear-gradient" x1="1414.81" y1="305.05" x2="728.14" y2="1494.4" gradientUnits="userSpaceOnUse"><stop offset="0" stop-color="blue"/><stop offset="1" stop-color="aqua"/></linearGradient></defs><title>Artboard 15</title><path class="cls-1" d="M1930,666q0,205.25.09,410.5c0,3.75-.84,4.59-4.59,4.59Q971,1081,16.5,1081c-6.5,0-6.5,0-6.5-6.5V1072c.87-1.22,1.78-2.42,2.6-3.67q85-130.5,171.05-260.3c94.11-141.76,188.5-283.33,287.23-421.94,27.46-38.54,55.41-76.72,85.76-113.12,12.73-15.27,28.44-22.83,47.55-25.39,9.58-1.28,19.24-1.36,28.81-2.58h19c10.79.64,21.6,1.07,32.36,2,46.67,3.88,92.91,10.94,139,19.3C901,280.38,978,297.78,1054.72,316.41c116.23,28.22,231.66,59.47,346.78,91.86,45.06,12.68,90.7,23.2,135.39,37.17,95.26,29.77,189.27,63.25,283.21,96.9,38.26,13.7,67.74,38.47,89.1,73C1919,631.06,1924.94,648.34,1930,666Z"/></svg>