<svg id="Layer_1" data-name="Layer 1" xmlns="http://www.w3.org/2000/svg" xmlns:xlink="http://www.w3.org/1999/xlink" viewBox="0 0 1920 1577"><defs><style>.cls-1{fill:url(#Gradiente_sem_nome_4);}.cls-16,.cls-2{fill:none;}.cls-3{clip-path:url(#clip-path);}.cls-4{fill:#ebebff;}.cls-5{fill:#f4f4f4;}.cls-6{clip-path:url(#clip-path-2);}.cls-7{fill:url(#Gradiente_sem_nome_2);}.cls-8{fill:#3878ff;}.cls-9{fill:#ffe3ca;}.cls-10{fill:#1f1f89;}.cls-11{fill:#f7f5ef;}.cls-12{fill:#8e574a;}.cls-13{fill:#3f4fff;}.cls-14{opacity:0.5;}.cls-15{clip-path:url(#clip-path-3);}.cls-16{stroke:#0a5de2;stroke-linecap:round;stroke-miterlimit:10;stroke-width:2px;}.cls-17{fill:#a6e2f4;}.cls-18{clip-path:url(#clip-path-4);}.cls-19{fill:#0a5de2;}.cls-20{fill:#2b159b;}.cls-21{fill:#f76d59;}.cls-22{opacity:0.4;}.cls-23{clip-path:url(#clip-path-5);}.cls-24{fill:#afc6f5;}.cls-25{clip-path:url(#clip-path-6);}.cls-26{fill:#7888ff;}.cls-27{clip-path:url(#clip-path-7);}.cls-28{fill:url(#Gradiente_sem_nome_2-2);}.cls-29{fill:#bcccfd;}.cls-30{clip-path:url(#clip-path-8);}.cls-31{clip-path:url(#clip-path-9);}.cls-32{mask:url(#mask);}.cls-33{fill:url(#Gradiente_sem_nome_3);}.cls-34{clip-path:url(#clip-path-10);}.cls-35{clip-path:url(#clip-path-11);}.cls-36{clip-path:url(#clip-path-12);}.cls-37{fill:#69a4b2;}</style><linearGradient id="Gradiente_sem_nome_4" x1="-471.76" y1="-982.93" x2="-469.54" y2="-982.93" gradientTransform="matrix(-23.1, 0, 0, 23.1, -9186.83, 24169.38)" gradientUnits="userSpaceOnUse"><stop offset="0" stop-color="#ccc"/><stop offset="0.99"/><stop offset="1"/></linearGradient><clipPath id="clip-path"><rect class="cls-2" x="621.95" y="277.66" width="1297" height="1297"/></clipPath><clipPath id="clip-path-2"><polygon class="cls-2" points="982.4 1422.24 988.88 1487.8 986.72 1545.43 1009.05 1545.43 1010.25 1541.14 994.95 1539.1 1003.11 1488.07 1010.48 1424.6 982.4 1422.24"/></clipPath><linearGradient id="Gradiente_sem_nome_2" x1="-447.14" y1="-1148.46" x2="-444.92" y2="-1148.46" gradientTransform="translate(-29852.36 13453.44) rotate(90) scale(26.86)" gradientUnits="userSpaceOnUse"><stop offset="0" stop-color="#241084"/><stop offset="0" stop-color="#241084"/><stop offset="0.99" stop-color="#0a5de2"/><stop offset="1" stop-color="#0a5de2"/></linearGradient><clipPath id="clip-path-3"><rect class="cls-2" x="914.15" y="1543.21" width="173.47" height="4.45"/></clipPath><clipPath id="clip-path-4"><rect class="cls-2" x="1236.63" y="1391.98" width="246.86" height="4.45"/></clipPath><clipPath id="clip-path-5"><rect class="cls-2" x="1572.45" y="1053.93" width="75.62" height="24.46"/></clipPath><clipPath id="clip-path-6"><rect class="cls-2" x="1512.41" y="1298.57" width="235.74" height="4.45"/></clipPath><clipPath id="clip-path-7"><polygon class="cls-2" points="1457.53 1119.47 1463.84 1173.82 1470.83 1217.53 1457.72 1219.28 1458.74 1222.95 1477.87 1222.95 1476.02 1173.59 1481.57 1117.45 1457.53 1119.47"/></clipPath><linearGradient id="Gradiente_sem_nome_2-2" x1="-468.75" y1="-1022.95" x2="-466.52" y2="-1022.95" gradientTransform="matrix(-27.25, 0, 0, 27.25, -11280.06, 29042.26)" xlink:href="#Gradiente_sem_nome_2"/><clipPath id="clip-path-8"><rect class="cls-2" x="1032.02" y="1383.08" width="173.47" height="4.45"/></clipPath><clipPath id="clip-path-9"><path class="cls-2" d="M1690.83,1483.16c5,2.67,9.88,5.18,13.46,7l8.44-23.4.79-7.44-11-28.46Z"/></clipPath><mask id="mask" x="1670.38" y="1423.02" width="63.6" height="74.96" maskUnits="userSpaceOnUse"><rect class="cls-1" x="1670.43" y="1438.95" width="63.49" height="43.1" transform="translate(-286.04 2498.52) rotate(-68.2)"/></mask><linearGradient id="Gradiente_sem_nome_3" x1="-471.76" y1="-982.93" x2="-469.54" y2="-982.93" gradientTransform="matrix(-23.1, 0, 0, 23.1, -9186.83, 24169.38)" gradientUnits="userSpaceOnUse"><stop offset="0" stop-color="#241084"/><stop offset="0.99" stop-color="#0a5de2"/><stop offset="1" stop-color="#0a5de2"/></linearGradient><clipPath id="clip-path-10"><rect class="cls-2" x="1630.28" y="1558.78" width="173.47" height="4.45"/></clipPath><clipPath id="clip-path-11"><rect class="cls-2" x="1403.43" y="1400.87" width="173.47" height="4.45"/></clipPath><clipPath id="clip-path-12"><rect class="cls-2" x="1147.67" y="1458.7" width="128.99" height="4.45"/></clipPath></defs><title>Artboard 9</title><g class="cls-3"><path class="cls-4" d="M2057.45,733.16c-7-131-48.15-398.94-138-396-122,4-212,167-196,329,17.46,176.79,49.33,287.87,13,376-34.6,83.95-147,74.77-275,188-123.5,109.27-114.5,197-215,237-93.51,37.25-156.77-7.65-311,4-129.83,9.81-258.14,35.85-253,106,5.87,80.09,190.3,125.44,278,147,250.52,61.6,716.47,176.18,976-110C2181.28,1344.19,2072,1004.78,2057.45,733.16Z"/></g><polygon class="cls-5" points="1013.41 1323.05 1010.98 1343.66 996.47 1381.33 1009.74 1385.41 1019.95 1346.12 1021.28 1323.96 1013.41 1323.05"/><g class="cls-6"><rect class="cls-7" x="978.89" y="1421.97" width="35.09" height="124.6" transform="translate(-83.39 59.52) rotate(-3.28)"/></g><polygon class="cls-8" points="975.02 1422.73 969.94 1478.58 935.75 1524 939.83 1545.43 950.04 1545.43 943.91 1540.84 942.89 1527.06 975.55 1490.32 1005.15 1424.49 975.02 1422.73"/><polygon class="cls-9" points="1021.28 1323.96 1020.89 1303.19 1016.71 1302.67 1013.41 1323.05 1021.28 1323.96"/><path class="cls-9" d="M980.68,1352.74c-1.54,7.55-1.62,19.1,9.71,20.91s18-5.32,19.68-12.85-1.14-17.21-12.78-18.72c-7.64-1-15.38,4.62-16.61,10.66"/><path class="cls-10" d="M988.83,1373.14c-8.09-2.18-11.16-10-10-17.86a15.85,15.85,0,0,1,18.46-13.2c.45.1.86.29,1.29.43a7.45,7.45,0,0,1-.25,3.33,13.14,13.14,0,0,1-8.37,8s-2.36,16.88-1.14,19.33"/><path class="cls-9" d="M987.89,1355.09a5.46,5.46,0,0,0-3.35.67c-3.27,1.79-2.12,6.7.77,8.26a8,8,0,0,0,3,.84,4.31,4.31,0,0,0,2.68-.42,3.29,3.29,0,0,0,1.4-2.18,6.54,6.54,0,0,0-.12-2.64c-.44-2-2.35-4.22-4.42-4.53"/><path class="cls-11" d="M1000.3,1350.53c1,2.76,3.55,4.37,5.63,3.59s2.94-3.64,1.91-6.41-3.55-4.36-5.63-3.58-2.94,3.64-1.91,6.4"/><path class="cls-12" d="M1014.36,1300.32a4.7,4.7,0,1,0,4.7-4.69,4.7,4.7,0,0,0-4.7,4.69"/><path class="cls-11" d="M1036.43,1331.84l-7.13,2.36a56.78,56.78,0,0,1-14.1,22.19l-13.35,13-16.43,11.09-12.21,45.28,38.18,3.6,1.27-49.89,14.17-17.72a56.74,56.74,0,0,0,11.49-25.06Z"/><path class="cls-11" d="M1056.49,1218.5h-54.71A16.46,16.46,0,0,0,985.32,1235v53.81a16.46,16.46,0,0,0,16.46,16.46h53.81a16.46,16.46,0,0,0,16.46-16.46v-53.7a16.57,16.57,0,0,0-16.57-16.58"/><path class="cls-9" d="M1037.83,1303.47a4.7,4.7,0,1,0,4.7-4.7,4.69,4.69,0,0,0-4.7,4.7"/><polygon class="cls-9" points="1028.55 1336.69 1037.95 1340.02 1045.5 1305.62 1040.11 1304.39 1028.55 1336.69"/><path class="cls-13" d="M1048.79,1251.27c0,12.07-21.85,44.09-21.85,44.09s-21.84-32-21.84-44.09a21.85,21.85,0,0,1,43.69,0"/><path class="cls-11" d="M1037.41,1249.45a10.47,10.47,0,1,1-10.47-10.46,10.47,10.47,0,0,1,10.47,10.46"/><g class="cls-14"><g class="cls-15"><line class="cls-16" x1="916.37" y1="1545.43" x2="1085.4" y2="1545.43"/></g></g><path class="cls-11" d="M1445.69,907.14H1260.18a19.11,19.11,0,0,0-19.1,19.11v446.62a19.11,19.11,0,0,0,19.1,19.11H1446.6a19.11,19.11,0,0,0,19.1-19.11V926.25a19.09,19.09,0,0,0-19.07-19.11"/><path class="cls-10" d="M1445.69,907.14H1260.18a19.11,19.11,0,0,0-19.1,19.11V945H1465.7v-19a18.93,18.93,0,0,0-19.07-18.78"/><path class="cls-10" d="M1241.08,1347.5v25.37a19.11,19.11,0,0,0,19.1,19.11H1446.6a19.11,19.11,0,0,0,19.1-19.11V1347.5Z"/><path class="cls-17" d="M1432.34,958.3h-54.7a16.46,16.46,0,0,0-16.47,16.46v53.81a16.46,16.46,0,0,0,16.46,16.46h53.82a16.46,16.46,0,0,0,16.46-16.46v-53.7a16.57,16.57,0,0,0-16.57-16.57"/><path class="cls-17" d="M1432.34,1220.73h-54.7a16.46,16.46,0,0,0-16.47,16.46V1291a16.46,16.46,0,0,0,16.46,16.46h53.82a16.46,16.46,0,0,0,16.46-16.46v-53.7a16.57,16.57,0,0,0-16.57-16.57"/><path class="cls-13" d="M1330,1220.73h-54.71a16.46,16.46,0,0,0-16.46,16.46V1291a16.46,16.46,0,0,0,16.46,16.46h53.81a16.46,16.46,0,0,0,16.47-16.46v-53.7a16.58,16.58,0,0,0-16.58-16.57"/><g class="cls-14"><g class="cls-18"><line class="cls-16" x1="1238.85" y1="1394.2" x2="1481.27" y2="1394.2"/></g></g><rect class="cls-10" x="1535.53" y="1224.65" width="2.22" height="180.11" transform="translate(-194.76 269.73) rotate(-9.44)"/><rect class="cls-10" x="1481.3" y="1224.65" width="2.22" height="180.11" transform="translate(-195.51 260.86) rotate(-9.44)"/><rect class="cls-10" x="1474.6" y="1262.98" width="55.6" height="2.22"/><rect class="cls-10" x="1476.82" y="1285.22" width="55.6" height="2.22"/><rect class="cls-10" x="1481.27" y="1309.69" width="55.6" height="2.22"/><rect class="cls-10" x="1485.72" y="1334.15" width="55.6" height="2.22"/><rect class="cls-10" x="1487.94" y="1356.39" width="55.6" height="2.22"/><rect class="cls-10" x="1492.39" y="1380.86" width="55.6" height="2.22"/><rect class="cls-8" x="1361.22" y="1313.6" width="180.11" height="2.22" transform="translate(-83.71 2530.64) rotate(-80.56)"/><rect class="cls-8" x="1415.44" y="1313.6" width="180.11" height="2.22" transform="translate(-38.38 2584.12) rotate(-80.56)"/><rect class="cls-8" x="1459.03" y="1262.98" width="55.6" height="2.22"/><rect class="cls-8" x="1454.58" y="1285.22" width="55.6" height="2.22"/><rect class="cls-8" x="1450.13" y="1309.69" width="55.6" height="2.22"/><rect class="cls-8" x="1447.91" y="1334.15" width="55.6" height="2.22"/><rect class="cls-8" x="1443.46" y="1356.39" width="55.6" height="2.22"/><rect class="cls-8" x="1439.01" y="1380.86" width="55.6" height="2.22"/><rect class="cls-19" x="1461.25" y="1222.95" width="66.72" height="6.67"/><polygon class="cls-17" points="1587.35 1193.14 1580.82 1125.96 1572.42 1054.11 1578.96 1053.18 1593.89 1121.29 1617.21 1123.16 1641.47 1054.11 1648.01 1055.05 1630.28 1128.76 1631.21 1191.27 1587.35 1193.14"/><path class="cls-9" d="M1594.89,1101.35c-1.77,6.45,1,16.78,7.45,18.54s14.1-5.71,15.86-12.15a12.08,12.08,0,0,0-23.31-6.39"/><path class="cls-20" d="M1603.49,1097.64a6.75,6.75,0,0,1-3.86-2.51,1.4,1.4,0,0,1-.13-.34,12,12,0,0,1,18.7,13,19.18,19.18,0,0,1-10.2,11.62,20.27,20.27,0,0,1,.73-3.85q2-7.63,4.45-15.14a65.5,65.5,0,0,1-9.69-2.73"/><path class="cls-21" d="M1611,1107.48a3.2,3.2,0,0,1,3.06-.5,2.16,2.16,0,0,1,.62.41,2.37,2.37,0,0,1,.56,1.89,4.85,4.85,0,0,1-3.49,4,3.5,3.5,0,0,1-1.57.17,2,2,0,0,1-1.35-.78c-1.12-1.6.91-4.26,2.17-5.18"/><polygon class="cls-8" points="1630.43 1191.54 1623.99 1294.12 1616.89 1294.12 1610.86 1192.37 1604.53 1192.64 1600.65 1296.63 1595.17 1296.5 1586.77 1193.4 1585.54 1180.69 1630.28 1181.28 1630.43 1191.54"/><polygon class="cls-8" points="1623.69 1294.12 1640.46 1295.97 1639.86 1298.57 1615.29 1298.57 1616.06 1294.12 1623.69 1294.12"/><polygon class="cls-8" points="1601.37 1296.78 1601.37 1299.8 1579.13 1300.64 1579.13 1297.86 1595.68 1296.64 1601.37 1296.78"/><path class="cls-20" d="M1606.44,1110.09c-3.92.42-7-3.53-11-4a1.38,1.38,0,0,0-.73.06,1.45,1.45,0,0,0-.6.73c-.5,1-1,1.93-1.49,2.9a12.13,12.13,0,0,0-1.24,3.07,14.6,14.6,0,0,0,1,7,7.49,7.49,0,0,0,4.2,3.57,13.06,13.06,0,0,0,5.56.58,10.56,10.56,0,0,0,3.72-.93,7,7,0,0,0,3.64-7.1,8.64,8.64,0,0,1-.25-2.08,5.13,5.13,0,0,1,.76-1.9c.38-.68,3-4.07,1-4.09-.62,0-1.51,1.05-2,1.36a6.5,6.5,0,0,1-2.49.87"/><g class="cls-22"><g class="cls-23"><polygon class="cls-24" points="1632.34 1078.39 1641.73 1078.39 1647.23 1055.52 1640.7 1054.59 1632.34 1078.39"/><polygon class="cls-24" points="1578.19 1053.66 1571.65 1054.59 1574.43 1078.39 1583.61 1078.39 1578.19 1053.66"/></g></g><path class="cls-8" d="M1737,980.54H1520.61a19.32,19.32,0,0,0-19.32,19.32v32.52a19.32,19.32,0,0,0,19.32,19.32h217.11a19.33,19.33,0,0,0,19.33-19.32V999.89a19.32,19.32,0,0,0-19.3-19.35"/><path class="cls-11" d="M1730.36,980.54H1513.94a19.33,19.33,0,0,0-19.33,19.32v32.52a19.33,19.33,0,0,0,19.33,19.32h217.11a19.32,19.32,0,0,0,19.32-19.32V999.89a19.31,19.31,0,0,0-19.29-19.35"/><path class="cls-24" d="M1734.44,1035.16,1724,1024.3a17.77,17.77,0,1,0-3.41,3.12l10.52,10.94a2.28,2.28,0,0,0,1.67.71,2.3,2.3,0,0,0,1.66-3.91m-24-35.34a13.09,13.09,0,1,1-13.09,13.09,13.1,13.1,0,0,1,13.09-13.09"/><g class="cls-14"><g class="cls-25"><line class="cls-16" x1="1514.63" y1="1300.79" x2="1745.93" y2="1300.79"/></g></g><path class="cls-9" d="M1579.69,1050.38a5.6,5.6,0,1,1-5.59-5.6,5.6,5.6,0,0,1,5.59,5.6"/><path class="cls-9" d="M1649.29,1052a5.6,5.6,0,1,1-5.6-5.6,5.6,5.6,0,0,1,5.6,5.6"/><path class="cls-9" d="M1374.33,1068.42a6.13,6.13,0,1,1-7.92-3.54,6.13,6.13,0,0,1,7.92,3.54"/><path class="cls-13" d="M1355.8,1041.72l-52.41-9.2a16.46,16.46,0,0,0-19.06,13.37l-9.2,52.41a16.45,16.45,0,0,0,13.36,19.06l52.42,9.2A16.46,16.46,0,0,0,1360,1113.2l9.2-52.42a16.47,16.47,0,0,0-13.37-19.06"/><path class="cls-8" d="M1103.19,1338.6h38.55a2.23,2.23,0,0,0,1.63-3.74l-37.07-40-3.26,3,33.61,36.29h-33.46Z"/><polygon class="cls-26" points="1372.92 1069.08 1389.47 1075.55 1437.59 1080.1 1421.52 1091.43 1387.72 1083.31 1370.44 1075.4 1372.92 1069.08"/><path class="cls-9" d="M1431.06,1061.78a13.5,13.5,0,1,1-17.43-7.78,13.5,13.5,0,0,1,17.43,7.78"/><g class="cls-27"><rect class="cls-28" x="1415.55" y="1150.01" width="108" height="40.66" transform="translate(78.66 2433.14) rotate(-80.77)"/></g><path class="cls-13" d="M1365.23,1074.91c7,2.87,30.71,9.16,38.3,8.55l15.88-1.29,16.42-4.32,36.06,17.67-19.22,26.64-32.86-27.33-19.41-.87c-8-.35-30.63-9-37.51-13.07Z"/><path class="cls-10" d="M1433.14,1058.34c-2.81-6.36-14.1-7.91-20.38-4.95a10.28,10.28,0,0,0-1.06.64,6.68,6.68,0,0,0,.89,2.87,11.81,11.81,0,0,0,9,5.32s.27.7.66,1.78a4,4,0,0,1,1.43-1.07,4.88,4.88,0,0,1,3.07-.08c3.24.91,3.22,5.46,1,7.4a7.25,7.25,0,0,1-2.5,1.36c-.11,0-.23.05-.34.08-.29,4.37,0,4.88.92,6.24,5.14-3.77,11.06-11.22,7.36-19.59"/><polygon class="cls-8" points="1540.45 1110.13 1508.18 1124.18 1471.02 1095.62 1451.95 1121.77 1508.15 1139.02 1541.42 1116.71 1548.49 1124.61 1550.88 1122.29 1540.45 1110.13"/><path class="cls-9" d="M1367.21,1074.7a6.13,6.13,0,1,1-7.92-3.54,6.12,6.12,0,0,1,7.92,3.54"/><path class="cls-8" d="M1098.74,918.26h44.48v438.13h-44.48Zm40,4.45h-35.58v429.23h35.58Z"/><rect class="cls-11" x="1094.29" y="1334.15" width="55.6" height="40.03"/><path class="cls-8" d="M1103.19,1174h38.55a2.22,2.22,0,0,0,1.63-3.73l-37.07-40-3.26,3,33.61,36.3h-33.46Z"/><path class="cls-8" d="M1103.19,1216.28h38.55a2.23,2.23,0,0,0,1.63-3.74l-37.07-40-3.26,3,33.61,36.29h-33.46Z"/><path class="cls-8" d="M1103.19,1256.31h38.55a2.22,2.22,0,0,0,1.63-3.73l-37.07-40-3.26,3,33.61,36.29h-33.46Z"/><path class="cls-8" d="M1103.19,1298.57h38.55a2.23,2.23,0,0,0,1.63-3.74l-37.07-40-3.26,3,33.61,36.3h-33.46Z"/><path class="cls-8" d="M1103.19,1134h38.55a2.22,2.22,0,0,0,1.63-3.73l-37.07-40-3.26,3,33.61,36.29h-33.46Z"/><path class="cls-8" d="M1103.19,1094h38.55a2.22,2.22,0,0,0,1.63-3.73l-37.07-40-3.26,3,33.61,36.3h-33.46Z"/><path class="cls-8" d="M1103.19,1053.93h38.55a2.23,2.23,0,0,0,1.63-3.74l-37.07-40-3.26,3,33.61,36.3h-33.46Z"/><path class="cls-8" d="M1103.19,1013.9h38.55a2.23,2.23,0,0,0,1.63-3.74l-37.07-40-3.26,3,33.61,36.3h-33.46Z"/><path class="cls-8" d="M1103.19,973.86h38.55a2.22,2.22,0,0,0,1.63-3.73l-37.07-40-3.26,3,33.61,36.3h-33.46Z"/><path class="cls-8" d="M1103.19,933.83h38.55a2.22,2.22,0,0,0,1.63-3.73l-37.07-40-3.26,3,33.61,36.29h-33.46Z"/><rect class="cls-10" x="1100.97" y="876.01" width="71.17" height="60.05"/><rect class="cls-10" x="994.21" y="876.01" width="71.17" height="33.36"/><path class="cls-8" d="M996.44,880.46H1343.8a2.23,2.23,0,0,0,0-4.45H995.37a2.23,2.23,0,0,0,0,4.45"/><rect class="cls-8" x="1325.59" y="887.13" width="2.22" height="144.56"/><rect class="cls-8" x="1074.28" y="1365.29" width="93.41" height="17.79"/><path class="cls-8" d="M1135.22,879.34a1.14,1.14,0,0,0,.79-.32l18.58-18.58h170.33l17.46,17.47a1.11,1.11,0,0,0,1.57-1.58l-18.11-18.11H1153.67l-19.23,19.22a1.11,1.11,0,0,0,.78,1.9"/><path class="cls-8" d="M993.89,878.76a1.1,1.1,0,0,0,1-.6l18.6-35.51h45.08L1076,877a1.11,1.11,0,1,0,2-1l-18.1-35.61h-47.8L992.9,877.13a1.12,1.12,0,0,0,.47,1.5,1.08,1.08,0,0,0,.52.13"/><path class="cls-11" d="M1318.35,887.69a8.15,8.15,0,1,0,8.15-8.16,8.15,8.15,0,0,0-8.15,8.16"/><path class="cls-8" d="M1278.29,860a1.11,1.11,0,0,0,.32-2.18L1114,807.65a1.17,1.17,0,0,0-.76,0l-78,32.94a1.11,1.11,0,1,0,.86,2l77.67-32.77L1278,860a1,1,0,0,0,.33,0"/><path class="cls-8" d="M1139.54,879.1a2.24,2.24,0,0,0,2.08-3l-25.93-68.21a2.22,2.22,0,0,0-4.26.35L1098,874.75a2.22,2.22,0,1,0,4.36.88l11.88-59,23.19,61a2.23,2.23,0,0,0,2.08,1.43"/><path class="cls-29" d="M1109.13,808.65a4.49,4.49,0,1,0,4.48-4.48,4.49,4.49,0,0,0-4.48,4.48"/><path class="cls-8" d="M1300.83,879.16a1.16,1.16,0,0,0,.7-.24l21.84-17.66v16.51a1.11,1.11,0,1,0,2.22,0V858.94a1.14,1.14,0,0,0-.63-1,1.12,1.12,0,0,0-1.18.14l-23.65,19.12a1.11,1.11,0,0,0-.17,1.56,1.13,1.13,0,0,0,.87.41"/><path class="cls-8" d="M1280.81,879.16a1.14,1.14,0,0,0,.7-.24l21.84-17.66v16.51a1.11,1.11,0,1,0,2.22,0V858.94a1.11,1.11,0,0,0-1.81-.87l-23.65,19.12a1.11,1.11,0,0,0,.7,2"/><path class="cls-8" d="M1258.57,879.16a1.14,1.14,0,0,0,.7-.24l21.84-17.66v16.51a1.11,1.11,0,1,0,2.22,0V858.94a1.11,1.11,0,0,0-1.81-.87l-23.65,19.12a1.11,1.11,0,0,0,.7,2"/><path class="cls-8" d="M1238.56,879.16a1.16,1.16,0,0,0,.7-.24l21.83-17.66v16.51a1.12,1.12,0,0,0,2.23,0V858.94a1.14,1.14,0,0,0-.63-1,1.12,1.12,0,0,0-1.18.14l-23.65,19.12a1.11,1.11,0,0,0,.7,2"/><path class="cls-8" d="M1216.32,879.16a1.11,1.11,0,0,0,.69-.24l21.84-17.66v16.51a1.12,1.12,0,0,0,2.23,0V858.94a1.13,1.13,0,0,0-.64-1,1.11,1.11,0,0,0-1.17.14l-23.66,19.12a1.11,1.11,0,0,0,.71,2"/><path class="cls-8" d="M1196.3,879.16a1.16,1.16,0,0,0,.7-.24l21.84-17.66v16.51a1.11,1.11,0,1,0,2.22,0V858.94a1.11,1.11,0,0,0-1.81-.87l-23.65,19.12a1.11,1.11,0,0,0,.7,2"/><path class="cls-8" d="M1174.06,879.16a1.16,1.16,0,0,0,.7-.24l21.84-17.66v16.51a1.11,1.11,0,1,0,2.22,0V858.94a1.11,1.11,0,0,0-1.81-.87l-23.65,19.12a1.11,1.11,0,0,0,.7,2"/><path class="cls-8" d="M1154,879.16a1.12,1.12,0,0,0,.7-.24l21.84-17.66v16.51a1.12,1.12,0,0,0,2.23,0V858.94a1.12,1.12,0,0,0-1.82-.87l-23.65,19.12a1.11,1.11,0,0,0,.7,2"/><path class="cls-8" d="M1029.5,879.16a1.12,1.12,0,0,0,.85-.39l28.36-33.47v32.47a1.11,1.11,0,0,0,2.22,0V842.26a1.12,1.12,0,0,0-.72-1,1.14,1.14,0,0,0-1.24.32l-30.32,35.79a1.11,1.11,0,0,0,.13,1.57,1.14,1.14,0,0,0,.72.26"/><path class="cls-8" d="M1007.26,879.16a1.08,1.08,0,0,0,.92-.5L1029.8,846v31.81a1.11,1.11,0,1,0,2.22,0V842.26a1.11,1.11,0,0,0-2-.61l-23.65,35.79a1.11,1.11,0,0,0,.93,1.72"/><path class="cls-10" d="M1319.5,1035.21a7,7,0,1,0,7-7,7,7,0,0,0-7,7"/><g class="cls-14"><g class="cls-30"><line class="cls-16" x1="1034.25" y1="1385.3" x2="1203.27" y2="1385.3"/></g></g><polygon class="cls-17" points="1738.8 1457.21 1736.27 1422.35 1740.17 1396.68 1753.42 1321.05 1747.02 1320.14 1732.4 1386.85 1709.55 1388.68 1685.79 1321.05 1679.39 1321.96 1696.76 1394.16 1702.85 1421.76 1702.14 1455.39 1738.8 1457.21"/><polygon class="cls-10" points="1707.31 1363.06 1705.06 1383 1718.63 1384.09 1726.93 1363.06 1707.31 1363.06"/><path class="cls-11" d="M1732.34,1371.31a13.71,13.71,0,1,1-13.71-13.71,13.71,13.71,0,0,1,13.71,13.71"/><path class="cls-19" d="M1745.93,1236.3h-54.71a16.46,16.46,0,0,0-16.46,16.46v53.81a16.46,16.46,0,0,0,16.46,16.46H1745a16.46,16.46,0,0,0,16.46-16.46v-53.7a16.57,16.57,0,0,0-16.57-16.57"/><path class="cls-10" d="M1723.67,1370.4a1.08,1.08,0,0,0,.85.14c.28-.1.42-.4.6-.64a2.16,2.16,0,0,1,3.1-.1,2.78,2.78,0,0,1,.34,3.25,4,4,0,0,1-2.85,1.82,25.66,25.66,0,0,0-.93,8.36l5.65.42a1.14,1.14,0,0,0,1.5-1.09,46.46,46.46,0,0,0,1-9.84c0-3.22-.39-6.55-2-9.31-2-3.31-10.16-8.74-14.14-5.69-4.38,3.35,3.84,11.22,6.88,12.68"/><path class="cls-10" d="M1712.31,1365.68a13.42,13.42,0,0,1-8.57,4.15,12.24,12.24,0,0,1,4.19-9.64c1.55-1.32,6.75-4.26,8.88-2.85s-2.93,6.81-4.5,8.34"/><polygon class="cls-19" points="1738.12 1432.48 1703.16 1430.85 1676.28 1551.27 1663.8 1543.68 1678.99 1562.12 1714.79 1462.86 1714.25 1507.88 1738.52 1540.04 1740.07 1551.65 1740.71 1556.59 1745.04 1556.07 1745.83 1538.38 1727.04 1507.83 1740.29 1457.25 1738.12 1432.48"/><polygon class="cls-11" points="1739.67 1353.68 1747.24 1356.33 1753.42 1321.05 1747.02 1320.14 1739.67 1353.68"/><polygon class="cls-11" points="1695.6 1348.97 1686.73 1352.47 1679.39 1321.96 1685.79 1321.05 1695.6 1348.97"/><polygon class="cls-11" points="1725.25 1387.42 1718.69 1399.06 1715.39 1388.21 1725.25 1387.42"/><path class="cls-11" d="M1676.53,1317.4a5.49,5.49,0,1,0,5.49-5.49,5.49,5.49,0,0,0-5.49,5.49"/><path class="cls-11" d="M1745.37,1318.42a5.48,5.48,0,1,0,5.48-5.48,5.48,5.48,0,0,0-5.48,5.48"/><g class="cls-31"><g class="cls-32"><rect class="cls-33" x="1670.43" y="1438.95" width="63.49" height="43.1" transform="translate(-286.04 2498.52) rotate(-68.2)"/></g></g><path class="cls-11" d="M1728.44,1265.16a11.28,11.28,0,1,1-11.27-11.27,11.27,11.27,0,0,1,11.27,11.27"/><path class="cls-11" d="M1739.33,1298.57a21.6,21.6,0,0,0-43.19,0Z"/><g class="cls-14"><g class="cls-34"><line class="cls-16" x1="1632.5" y1="1561" x2="1801.53" y2="1561"/></g></g><g class="cls-14"><g class="cls-35"><line class="cls-16" x1="1405.65" y1="1403.1" x2="1574.68" y2="1403.1"/></g></g><path class="cls-13" d="M1232.18,1127.32h-54.7a16.46,16.46,0,0,0-16.47,16.46v53.82a16.46,16.46,0,0,0,16.46,16.46h53.82a16.46,16.46,0,0,0,16.46-16.47V1143.9a16.58,16.58,0,0,0-16.58-16.58"/><polygon class="cls-11" points="1180.66 1353.73 1174.17 1287.01 1165.84 1215.66 1172.32 1214.73 1187.15 1282.38 1210.31 1284.23 1234.41 1215.66 1240.89 1216.59 1223.29 1289.79 1224.21 1351.87 1180.66 1353.73"/><path class="cls-9" d="M1176.54,1212a5.56,5.56,0,1,1-5.56-5.56,5.56,5.56,0,0,1,5.56,5.56"/><path class="cls-9" d="M1241.41,1213.81a5.56,5.56,0,1,1-5.56-5.56,5.56,5.56,0,0,1,5.56,5.56"/><path class="cls-9" d="M1213.91,1262.11a14.14,14.14,0,1,1-14.14-14.14,14.14,14.14,0,0,1,14.14,14.14"/><path class="cls-10" d="M1213.91,1264.33a14.14,14.14,0,1,1-14.14-14.14,14.14,14.14,0,0,1,14.14,14.14"/><polygon class="cls-8" points="1225.66 1351.67 1219.22 1454.25 1212.12 1454.25 1206.1 1352.5 1199.76 1352.77 1195.88 1456.76 1190.41 1456.63 1182.01 1353.53 1180.77 1340.82 1225.51 1341.4 1225.66 1351.67"/><polygon class="cls-8" points="1218 1454.25 1234.77 1456.1 1234.16 1458.69 1209.6 1458.69 1210.37 1454.25 1218 1454.25"/><polygon class="cls-8" points="1194.37 1456.63 1194.37 1459.66 1172.13 1460.5 1172.13 1457.72 1188.69 1456.5 1194.37 1456.63"/><g class="cls-14"><g class="cls-36"><line class="cls-16" x1="1149.89" y1="1460.92" x2="1274.44" y2="1460.92"/></g></g><path class="cls-37" d="M1392.17,1483a2,2,0,0,1-.06.54l0,.12a2.35,2.35,0,0,1-.17.44l-.05.1a3.59,3.59,0,0,1-.33.5l-.1.11a4.6,4.6,0,0,1-.43.46l-.06.06c-.18.16-.39.32-.61.48l-.19.12c-.18.13-.38.24-.58.36l-.24.14-.69.35-.28.13q-.51.22-1.11.45l-38.15,14c-.36.14-.77.23-1.15.35-.56.17-1.12.35-1.72.49s-1.49.32-2.26.44c-.47.08-1,.14-1.44.19s-1.2.16-1.81.21l-.37,0q-1.49.11-3,.12h.1a3.84,3.84,0,0,0-3.09,2.22h0c-1-2.26-2-2.36-3-2.49h-.07c-1-.13-1.87-.29-2.75-.49l-.09,0a23.73,23.73,0,0,1-2.53-.7l-37.35-12.79c-.21-.07-.39-.15-.59-.23l-.52-.2c-.18-.07-.33-.15-.49-.22l-.47-.22-.39-.23c-.14-.08-.29-.16-.42-.25a2.49,2.49,0,0,1-.31-.23,3.18,3.18,0,0,1-.35-.26,2.23,2.23,0,0,1-.27-.26,2,2,0,0,1-.25-.25,2.35,2.35,0,0,1-.23-.32,1.21,1.21,0,0,1-.14-.2c-.05-.09-.08-.18-.12-.26a3.9,3.9,0,0,0-.68-.8l.14,16.47a2.43,2.43,0,0,0,.19.86c0,.09.06.19.11.28s.1.14.15.21a1.85,1.85,0,0,0,.23.34,2.29,2.29,0,0,0,.21.23c.1.11.19.21.31.32l.24.19c.14.11.27.22.43.33s.21.13.31.2l.5.3.34.17c.2.11.4.21.63.31l.44.18c.21.09.43.18.66.26h0l37.57,13.62c.42.16.86.3,1.31.43l1.16.31.08,0,.08,0,.9.2,1,.19.85.13h.15l1,.13,1,.1.94.07h.08c.34,0,.68.05,1,.06l1.06,0h1.1l1.16,0,1.26-.06.48,0,.37,0,.7,0c.38,0,.74-.11,1.11-.15s1-.12,1.45-.2l.41-.05c.56-.1,1.1-.21,1.63-.33l.21-.06c.61-.14,1.17-.32,1.73-.49.3-.09.62-.16.9-.26l.24-.08,38.15-14c.38-.14.74-.28,1.07-.43l0,0,.28-.14.57-.27.11-.07.25-.14a3.54,3.54,0,0,0,.33-.19l.24-.16.19-.13.13-.09a4.23,4.23,0,0,0,.45-.37l0,0,.06-.06.29-.28c.06-.06.1-.12.15-.18l.09-.11.07-.08a3,3,0,0,0,.24-.38l0,0,0-.09c0-.09.09-.17.12-.25s0-.13,0-.19a.93.93,0,0,0,0-.13.24.24,0,0,0,0-.08,2,2,0,0,0,0-.43v0Z"/><path class="cls-17" d="M1387.29,1480.45c6.37,2.18,6.28,5.77-.2,8l-37.92,13.13c-6.47,2.24-16.89,2.28-23.26.1l-37.35-12.79c-6.37-2.19-6.31-5.78.17-8l37.92-13.12c6.47-2.24,16.91-2.29,23.29-.1Z"/><path class="cls-10" d="M1539,1467.45a2.5,2.5,0,0,1-.07.54.93.93,0,0,1,0,.13,2.2,2.2,0,0,1-.17.44l0,.09a3.16,3.16,0,0,1-.34.5l-.09.12a4.62,4.62,0,0,1-.44.45l-.06.06a6.49,6.49,0,0,1-.61.48l-.19.13a6.36,6.36,0,0,1-.58.35l-.23.14-.7.35-.27.13c-.35.15-.72.3-1.12.45l-38.15,14c-.36.13-.76.23-1.15.34-.56.17-1.11.35-1.72.49s-1.48.32-2.26.44c-.47.08-1,.14-1.44.2s-1.19.15-1.81.2l-.37,0c-1,.07-2,.11-3,.12h.32a37.57,37.57,0,0,0-3.09,2.22h0a4.52,4.52,0,0,0-3-1.24h-.07c-1-.13-1.87-.29-2.75-.49h-.09a24.58,24.58,0,0,1-2.54-.71l-37.34-12.79-.59-.22-.52-.2-.49-.23-.47-.22-.39-.23c-.14-.08-.29-.16-.42-.25a2.49,2.49,0,0,1-.31-.23,3.18,3.18,0,0,1-.35-.26,2.23,2.23,0,0,1-.27-.26,2,2,0,0,1-.25-.25,1.72,1.72,0,0,1-.23-.32,1.21,1.21,0,0,1-.14-.2c-.05-.09-.08-.17-.12-.26-.11-.27-.9-.8-.9-.8l.13,15.22a2.38,2.38,0,0,0,.19.86c0,.09.07.19.12.28a1.28,1.28,0,0,0,.14.21,2.54,2.54,0,0,0,.23.34,2.39,2.39,0,0,0,.22.23,3,3,0,0,0,.3.32l.24.19c.14.11.27.22.43.33l.32.2c.16.1.32.21.5.31l.33.16.63.31c.14.07.3.12.44.18l.66.27h0l37.57,13.63c.42.15.86.29,1.32.43s.76.21,1.15.3l.08,0,.09,0,.9.2,1,.19.84.13h.16l1,.13,1,.1.93.07h.08l1,0c.35,0,.7,0,1.06,0h1.1l1.15,0,1.27-.06.47,0,.38,0,.7,0c.38,0,.73-.1,1.11-.15s1-.12,1.44-.2l.42,0c.55-.1,1.1-.21,1.63-.33l.21-.06c.6-.14,1.16-.31,1.73-.49.29-.09.62-.16.9-.25l.24-.09,38.15-14c.38-.14.73-.28,1.07-.43l0,0,.29-.14.57-.27.11-.07.24-.14.34-.19.24-.16.19-.13.12-.09a4.37,4.37,0,0,0,.46-.37l0,0,.06-.06a3.83,3.83,0,0,0,.29-.28c0-.06.09-.12.14-.17l.1-.12.07-.08a3.87,3.87,0,0,0,.24-.37l0,0,0-.09c0-.09.08-.17.11-.25a1.39,1.39,0,0,0,.06-.19c0-.05,0-.09,0-.13a.24.24,0,0,1,0-.08,2,2,0,0,0,0-.43,0,0,0,0,0,0,0Z"/><path class="cls-8" d="M1534.29,1466.13c6.38,2.18,6.29,5.77-.19,8l-37.92,13.13c-6.47,2.24-16.89,2.28-23.27.1l-37.34-12.79c-6.38-2.19-6.31-5.78.17-8l37.91-13.12c6.48-2.24,16.92-2.29,23.3-.1Z"/></svg>